<svg xmlns="http://www.w3.org/2000/svg" viewBox="0 0 1415 460"><g id="title-logo-fff-color"><g id="shaded_bits" data-name="shaded bits"><g id="shade_primary" data-name="shade primary"><path d="M118.56,432.52H56C24.18,375.57,25.61,347,32.57,333.07a30.06,30.06,0,0,1,15.59-14.42c1,3.17,2.14,6.56,3.52,10.18C63.62,360.21,86.09,395,118.56,432.52Z" style="fill:#91c73e"/><path d="M424.32,198.52c.14,7.41-.87,22.85-8.24,48.29-9.93,34.32-33.78,94.25-90.92,185.71H272.53c13-16.57,42.9-59.44,36.12-96.23,0,0-8.07,38.29-55.81,96.23H217.47c-38.38-58.47-44.88-97-44.88-97-5.44,36.77,17.95,79.52,28.85,97H140.22C96,383.62,76.3,347.12,67.58,325c-6.66-16.88-8.07-28.1-8.32-33.4,12.21-7.63,54.88-33.15,113.58-55.86C235.38,211.53,329.21,185.76,424.32,198.52Z" style="fill:#91c73e"/><path d="M431.35,305.08c2.19,2.36,5.56,9,3.6,26.69-1.34,12.23-5,27.56-10.82,45.58-7.67,23.7-17.17,45.82-21.33,55.17H344.24c29.2-47.4,52-90.24,68.15-128.09C419.45,302.16,427.49,300.92,431.35,305.08Z" style="fill:#91c73e"/><path d="M347.23,117.05c7.11,4.5,18.92,18.47,22.45,61.83A489.58,489.58,0,0,0,290,186a616.57,616.57,0,0,0-89.43,22.5A83.76,83.76,0,0,0,191,193.8c-5.84-7.09-12.35-11.93-19.21-14.45-7.31-2.67-36.12,7.58-40,14.14s-5.85,14.88-5.7,24.66a89.41,89.41,0,0,0,2.39,18.57c-12.86,5.81-24.46,11.48-34.61,16.71,13.12-43.88,44.51-88.5,58.78-107.34.57.84,1.15,1.67,1.75,2.48C166.16,164.45,182,173.2,199,173.2s32.85-8.75,44.59-24.63a85.76,85.76,0,0,0,12.34-24.26c8.39,18.13,25.07,30.51,44.24,30.51C321.8,154.82,340.27,139.05,347.23,117.05Z" style="fill:#91c73e"/><path d="M230.55,45.53a73.71,73.71,0,0,1,12.86,31.22c-40.39-5.38-73,.5-89.47,4.7,1.61-13.61,6.28-26.1,13.54-35.92,8.6-11.65,19.8-18,31.53-18S222,33.88,230.55,45.53Z" style="fill:#91c73e"/><path d="M300.18,56.78c13.89,0,25.86,10.21,31,24.76-25-4.8-48.26-2.33-62.15.18C274.22,67.07,286.22,56.78,300.18,56.78Z" style="fill:#91c73e"/></g><g id="shade_white" data-name="shade white"><path d="M320,96.18A128.51,128.51,0,0,1,334,98.73c-.45,22.08-15.43,39.87-33.77,39.87s-33.29-17.75-33.78-39.79a165,165,0,0,1,19.46-3,11.58,11.58,0,0,0-.55,3.53c0,7.85,7.87,14.21,17.57,14.21s17.57-6.36,17.57-14.21A11.54,11.54,0,0,0,320,96.18Z" style="fill:#fff"/><path d="M244.72,93.32c-.2,17.32-5.21,33.49-14.17,45.61-8.6,11.64-19.79,18-31.54,18s-22.93-6.41-31.53-18c-8.08-10.93-12.95-25.15-14-40.54a205.28,205.28,0,0,1,34.09-6.31,13.16,13.16,0,0,0-1.22,5.52c0,8.81,8.84,16,19.74,16s19.73-7.14,19.73-16a13.31,13.31,0,0,0-1.64-6.38C230.77,91.59,237.63,92.26,244.72,93.32Z" style="fill:#fff"/><path d="M170.69,196.89c6.78,3.47,11.31,11.43,14.38,17q-9.21,3.27-18.45,6.85c-8,3.09-15.63,6.21-23,9.33a70,70,0,0,1-1.34-12.14c-.07-5-.24-9.23,1.52-11.9C148.4,199.12,165.54,194.27,170.69,196.89Z" style="fill:#fff"/></g><g id="shade_dark" data-name="shade dark"><path d="M416.08,246.81c7.37-25.44,8.38-40.88,8.24-48.29A399.63,399.63,0,0,0,356,195.47c-7.09.27-14.12.72-21.1,1.3,20.68,2.18,47.09,7.08,51.7,18,5.86,13.92-30.33,137-48.4,196.47,41.68-69.35,62.92-118.73,73.75-151.18Q414.33,252.91,416.08,246.81Z" style="fill:#7ba835"/><path d="M414.72,403.76c3.13-8.12,6.41-17.15,9.41-26.42q3.28-10.12,5.63-19.11A187.07,187.07,0,0,0,435,331.77a70.53,70.53,0,0,0,.24-16.1c-.74-6.14-2.51-9.15-3.85-10.59a6.85,6.85,0,0,0-.89-.81c-1.91-1.47-4.53-2-7.44-1.91,5.75,10.23,8.26,40.63-36.9,130.16H402.8C405.34,426.83,409.85,416.39,414.72,403.76Z" style="fill:#7ba835"/><path d="M167.48,45.53A68.86,68.86,0,0,0,158,63.8a83.43,83.43,0,0,0-4,17.65c1.52-.39,3.19-.8,5-1.21,3.55-.8,7.63-1.62,12.17-2.38,3.24-13.14,11.78-42,25.79-50.31C185.93,28.28,175.55,34.59,167.48,45.53Z" style="fill:#7ba835"/><path d="M270.69,77.72c-.6,1.29-1.14,2.63-1.62,4q2.55-.47,5.51-.9c1.79-.27,3.7-.53,5.69-.76,5.26-7.16,16.89-20.57,30.7-21.12a28.38,28.38,0,0,0-10.79-2.16C287.53,56.78,276.48,65.24,270.69,77.72Z" style="fill:#7ba835"/><path d="M345.74,179.65q12.09-.71,23.94-.77a177.75,177.75,0,0,0-5.34-32.65c-5.11-18.52-12.22-26.09-17.11-29.18-.2.62-.42,1.23-.64,1.84C349.41,129.46,352.86,151,345.74,179.65Z" style="fill:#7ba835"/><path d="M309.29,336.39q-.15,1.08-.3,2.1c2.32,16-2,33-8.7,48.47-8.46,19.53-20.63,36.49-27.76,45.56h10.16C317.49,389.23,309.29,336.39,309.29,336.39Z" style="fill:#7ba835"/><path d="M197.11,398.16c5.51,10.44,12.21,21.95,20.36,34.36h8.87c-15-20.64-49.76-86.64-52.67-92.18C175.88,349.18,182,369.66,197.11,398.16Z" style="fill:#7ba835"/></g><g id="shade_light" data-name="shade light"><path d="M62.4,289.64l-3.09,1.91v1a75.16,75.16,0,0,0,1.22,9,133.18,133.18,0,0,0,7,23.43c8.72,22.14,28.4,58.63,72.64,107.54h18.61C128.28,406.79,75.63,313.54,62.4,289.64Z" style="fill:#9fd748"/><path d="M48.32,319.16c0-.17-.11-.34-.16-.51a30.91,30.91,0,0,0-10.9,7.58l-.24.26-.24.27a29.75,29.75,0,0,0-4.21,6.31c-6.24,12.52-8,36.77,14.57,82.68,2.61,5.3,5.52,10.88,8.81,16.77h9.84C19.4,353.39,39.63,326.3,48.32,319.16Z" style="fill:#9fd748"/></g></g><path id="outline" d="M423.24,426.1c4.74-11.36,10.89-27,16.28-43.63q7.88-24.29,10.66-42.29c2.94-19,1.68-32.87-3.8-41.93a25.4,25.4,0,0,0-3.13-4.19c-.27-.3-.56-.58-.84-.86-5.09-5-11.81-7.35-20.08-7.05-.85,0-1.7.08-2.58.17q5.47-14.13,9.56-27.21,1.72-5.52,3.23-10.86c7.89-28.31,8.41-45.12,7.89-53.13a35,35,0,0,0-.73-5.62l-.58-2.42-.69-2.88-5.39-.82q-15.75-2.4-32.06-3.5c-5-.34-10-.61-15-.77-2.34-30.59-9-52.83-19.76-66.36a46.08,46.08,0,0,0-5.61-5.93,34,34,0,0,0-10.47-6.41c0-.79,0-1.59.05-2.38,0-.12,0-.23,0-.34,0-27.56-17.18-50.63-39.95-56-.37-.09-.75-.16-1.12-.23-1.27-.27-2.54-.49-3.84-.64a43.11,43.11,0,0,0-5.1-.3c-17.74,0-33.35,10.61-42.24,26.56A87.94,87.94,0,0,0,243.6,35.89a70.75,70.75,0,0,0-9.2-10.24l-.32-.31-.56-.47a52.93,52.93,0,0,0-28.19-13.2h-.11a49.31,49.31,0,0,0-6.21-.4h0c-12.65,0-24.65,4.85-34.8,13.86a70.66,70.66,0,0,0-9.78,10.77C143.24,51,137.08,71,137.08,92.23q0,3.61.24,7.19c.05.67.1,1.34.16,2,0,.39.06.77.1,1.16A100.41,100.41,0,0,0,142.65,126q.78,2.23,1.66,4.41c-4.25,5.38-12.32,15.94-21.61,29.83-2.41,3.59-4.9,7.41-7.43,11.42a408.69,408.69,0,0,0-20.79,36.87l-.06.12c-.24.49-.46,1-.7,1.47C84.37,229.29,78,247.26,74.56,263.77c-17.06,9.48-26.94,16-27.82,16.56l-2.34,1.55-.73.48L43.18,286v.09a39.23,39.23,0,0,0-.11,6.65,82.14,82.14,0,0,0,1.19,10.07,46.21,46.21,0,0,0-26,22.67q-6.8,13.36-5.84,31.71c1.22,23.32,11.83,52.58,31.79,87.46l2.33,4.08H413.19l2.19-4.68.18-.39c.74-1.58,3.5-7.61,7.21-16.44ZM404.67,321.75q4.08-8.82,7.72-17.32c.94-.3,1.91-.59,2.88-.84,1.15-.31,2.31-.57,3.45-.78,4.57-.82,8.92-.7,11.73,1.46a6.85,6.85,0,0,1,.89.81c1.34,1.44,3.11,4.45,3.85,10.59a70.53,70.53,0,0,1-.24,16.1,187.07,187.07,0,0,1-5.19,26.46q-2.34,9-5.63,19.11c-3,9.27-6.28,18.3-9.41,26.42-4.87,12.63-9.38,23.07-11.92,28.76H344.25q8.49-13.78,16.25-27Q386.79,360.54,404.67,321.75ZM272.53,432.52c7.13-9.07,19.3-26,27.76-45.56,7-16.14,11.43-34,8.36-50.67h0s-8.07,38.29-55.81,96.23H217.47c-8.15-12.41-14.85-23.92-20.36-34.36-20.47-38.74-24.52-62.68-24.52-62.68h0c-2.11,14.26.13,29.43,4.28,43.67,6.3,21.59,17,41.06,23.76,52.06l.81,1.31H140.22C96,383.61,76.3,347.12,67.58,325a133.18,133.18,0,0,1-7-23.43,69.08,69.08,0,0,1-1.27-10c1.13-.7,2.52-1.57,4.17-2.56a713.29,713.29,0,0,1,109.41-53.3c47.42-18.34,112.83-37.57,183.14-40.25a399.63,399.63,0,0,1,68.34,3.05c.14,7.41-.87,22.85-8.24,48.29q-1.75,6.09-4.15,13.28c-11.9,35.68-36.39,91.8-86.78,172.43Zm-240-99.45a29.75,29.75,0,0,1,4.21-6.31l.24-.27.24-.26a30.91,30.91,0,0,1,10.9-7.58c.25.82.52,1.65.8,2.5.64,2,1.35,4,2.14,6.11.19.52.38,1,.58,1.57,11.94,31.38,34.41,66.2,66.88,103.69H56c-3.29-5.89-6.2-11.47-8.81-16.77C24.55,369.84,26.33,345.59,32.57,333.07ZM167.48,45.53c8.6-11.64,19.8-18,31.53-18,8.51,0,16.73,3.38,23.89,9.66a52.62,52.62,0,0,1,7.65,8.39A69.38,69.38,0,0,1,240.45,65a83,83,0,0,1,3,11.77,246.73,246.73,0,0,0-50.5-1.5l-.33,0-.14,0a231,231,0,0,0-33.52,4.95c-1.79.41-3.46.82-5,1.21a83.43,83.43,0,0,1,4-17.65A68.86,68.86,0,0,1,167.48,45.53Zm163.74,36c-21.91-4.22-42.53-2.82-56.64-.72q-3,.44-5.51.9c.48-1.37,1-2.71,1.62-4,5.79-12.48,16.84-20.94,29.49-20.94,10.85,0,20.53,6.23,26.72,15.9A43.34,43.34,0,0,1,331.22,81.54Zm-49,14.66c1.19-.14,2.4-.27,3.66-.39a11.6,11.6,0,0,0-.55,3.54c0,4.41,2.49,8.35,6.39,11a20.23,20.23,0,0,0,11.18,3.24A20.54,20.54,0,0,0,313,111c4.53-2.57,7.5-6.82,7.5-11.63v0a11.31,11.31,0,0,0-.11-1.55v-.06a11.23,11.23,0,0,0-.32-1.53c1.83.23,3.68.52,5.53.83s3.92.72,5.9,1.15c.84.19,1.68.37,2.51.57-.43,20.7-13.62,37.63-30.38,39.67a29.25,29.25,0,0,1-3.39.2c-16,0-29.5-13.59-32.94-31.75a49.1,49.1,0,0,1-.84-8c2.37-.52,5.42-1.11,9-1.68C277.48,96.8,279.76,96.49,282.2,96.2ZM199.45,157H199a31.81,31.81,0,0,1-6.53-.67l-.44-.1a39.28,39.28,0,0,1-19-10.8,54.94,54.94,0,0,1-5.6-6.48,67,67,0,0,1-7.33-12.74,82.93,82.93,0,0,1-6.65-27.8,205.07,205.07,0,0,1,34.09-6.31c-.09.18-.15.38-.23.57a13.17,13.17,0,0,0-1,4.95c0,8.81,8.84,16,19.74,16,7.4,0,13.84-3.3,17.22-8.18a13.6,13.6,0,0,0,2.51-7.77,12.81,12.81,0,0,0-.4-3.17c0-.05,0-.09,0-.14l0,0a13.31,13.31,0,0,0-1.2-3c6.57.36,13.43,1,20.52,2.09-.19,17.19-5.14,33.24-14,45.32l-.21.29c-.08.12-.18.23-.27.35C221.82,150.55,210.91,156.81,199.45,157Zm-46.77-10.88.55.77q.59.87,1.2,1.71a68.25,68.25,0,0,0,11.88,12.55C176,169,187.22,173.2,199,173.2a50.81,50.81,0,0,0,29.81-9.86,66.74,66.74,0,0,0,14.78-14.77,85.76,85.76,0,0,0,12.34-24.26c8.39,18.13,25.07,30.51,44.24,30.51,17.32,0,32.62-10.13,41.59-25.47a59.82,59.82,0,0,0,5.46-12.3c4.89,3.09,12,10.66,17.11,29.18a177.75,177.75,0,0,1,5.34,32.65,482.49,482.49,0,0,0-66.94,5.17c-4.22.62-8.46,1.27-12.72,2q-11.55,2-23.26,4.48-25.83,5.52-52.22,13.6-7,2.13-13.94,4.42a86.88,86.88,0,0,0-7.74-12.42c-.59-.77-1.2-1.55-1.83-2.32l-.06-.07c-.66-.8-1.34-1.57-2-2.32l-.69-.73c-.48-.51-1-1-1.45-1.48-.27-.27-.54-.52-.82-.78-.45-.43-.92-.86-1.38-1.26l-.86-.74c-.47-.39-.94-.77-1.41-1.13-.28-.22-.56-.44-.85-.65-.51-.38-1-.73-1.55-1.08l-.74-.5c-.7-.45-1.4-.87-2.11-1.27l-.21-.12c-.73-.4-1.46-.78-2.19-1.12l-.1,0c-.92-.42-1.84-.82-2.77-1.16-7.31-2.67-36.12,7.58-40,14.14-.5.83-1,1.7-1.39,2.59s-.75,1.64-1.09,2.49c-.12.29-.21.59-.32.88-.22.6-.44,1.2-.64,1.82-.11.35-.21.72-.31,1.08-.17.58-.33,1.16-.48,1.76l-.27,1.18c-.13.59-.24,1.2-.35,1.81q-.12.61-.21,1.23c-.1.64-.18,1.28-.25,1.94-.05.4-.1.8-.14,1.22q-.09,1.09-.15,2.22c0,.35,0,.69-.06,1,0,1.12-.06,2.25,0,3.4a89.5,89.5,0,0,0,2.39,18.57c-8.87,4-17.12,7.94-24.73,11.72-2.09,1-4.14,2.06-6.12,3.07-1.27.64-2.53,1.28-3.76,1.92,11.76-39.33,38.19-79.24,53.83-100.66C149.53,150.29,151.2,148.05,152.68,146.09Zm-9,84c-.06-.31-.12-.64-.18-1a68.61,68.61,0,0,1-1.16-11.17A37,37,0,0,1,143.86,206c4.56-6.87,21.61-11.71,26.79-9.12,6.41,4.14,11.34,11.43,14.42,17q-9.23,3.27-18.45,6.85c-2.65,1-5.25,2.06-7.83,3.09Q151,226.94,143.67,230.06Z" style="fill:#212e3e"/><text transform="translate(491 248.98)" style="font-size:326px;fill:#212e3e;font-family:Raleway-Heavy, Raleway;font-weight:800">f<tspan x="133.98" y="0" style="letter-spacing:-0.004989155962423313em">r</tspan><tspan x="268.3" y="0" style="letter-spacing:-0.000001497795245398773em">oge</tspan></text><path d="M541.38,268.23c4.73,0,9.35,1,12.43,3.19L550,281.76a13.54,13.54,0,0,0-7.59-2.42c-5.72,0-8.69,3.19-8.69,9.46v3.52h16.17v11H534.12v47.3H520.37v-47.3h-9.68v-11h9.68v-3.74C520.37,276.26,527.74,268.23,541.38,268.23ZM566,274c0-4.62,3.74-8.25,8.8-8.25s8.8,3.41,8.8,7.92a8.44,8.44,0,0,1-8.8,8.58C569.76,282.2,566,278.57,566,274Zm1.87,17.93h13.75v58.74H567.89Z" style="fill:#81bf30"/><path d="M657.54,317v33.66H643.79v-31.9c0-10.45-5.17-15.51-14-15.51-9.78,0-16.39,5.94-16.39,17.71v29.7H599.67V291.88h13.1v7.59c4.51-5.39,11.65-8.25,20.23-8.25C647.08,291.22,657.54,299.25,657.54,317Z" style="fill:#81bf30"/><path d="M724.2,316.19v34.43h-13v-7.15c-3.3,5.06-9.67,7.92-18.48,7.92-13.42,0-21.89-7.37-21.89-17.6,0-9.79,6.6-17.49,24.42-17.49h15.19v-.88c0-8-4.85-12.76-14.64-12.76-6.6,0-13.42,2.2-17.82,5.83l-5.39-10c6.28-4.84,15.4-7.26,24.86-7.26C714.4,291.22,724.2,299.25,724.2,316.19Zm-13.75,16.06v-6.82h-14.2c-9.35,0-11.87,3.52-11.87,7.81,0,4.95,4.17,8.14,11.21,8.14C702.3,341.38,708.13,338.3,710.45,332.25Z" style="fill:#81bf30"/><path d="M799.65,317v33.66H785.9v-31.9c0-10.45-5.17-15.51-14-15.51-9.79,0-16.39,5.94-16.39,17.71v29.7H741.79V291.88h13.09v7.59c4.51-5.39,11.66-8.25,20.24-8.25C789.2,291.22,799.65,299.25,799.65,317Z" style="fill:#81bf30"/><path d="M812.85,321.25c0-17.6,13.2-30,31.79-30,11.44,0,20.57,4.73,25.08,13.64L859.16,311a16.62,16.62,0,0,0-14.63-8.14c-10.12,0-17.82,7-17.82,18.37s7.7,18.37,17.82,18.37a16.62,16.62,0,0,0,14.63-8.14l10.56,6.16c-4.51,8.8-13.64,13.75-25.08,13.75C826.05,351.39,812.85,338.85,812.85,321.25Z" style="fill:#81bf30"/><path d="M935.72,325.65H889.63c1.65,8.58,8.8,14.08,19,14.08,6.6,0,11.77-2.09,16-6.38l7.37,8.47c-5.28,6.27-13.53,9.57-23.65,9.57-19.69,0-32.45-12.65-32.45-30.14s12.87-30,30.36-30c17.16,0,29.7,12,29.7,30.36C935.94,322.68,935.83,324.33,935.72,325.65Zm-46.2-9.13h33.33c-1.1-8.47-7.59-14.3-16.61-14.3S890.84,307.94,889.52,316.52Z" style="fill:#81bf30"/><path d="M530.86,388.69v3.52H547v11H531.29v47.3H517.54v-47.3h-9.67v-11h9.67v-3.75c0-12.32,7.38-20.34,21-20.34,4.73,0,9.35,1,12.43,3.18l-3.85,10.34a13.57,13.57,0,0,0-7.6-2.42C533.83,379.22,530.86,382.42,530.86,388.69Z" style="fill:#81bf30"/><path d="M550.54,421.13c0-17.59,13.2-30,31.25-30,18.25,0,31.34,12.43,31.34,30S600,451.28,581.79,451.28C563.74,451.28,550.54,438.74,550.54,421.13Zm48.73,0c0-11.21-7.48-18.36-17.48-18.36s-17.39,7.15-17.39,18.36,7.48,18.38,17.39,18.38S599.27,432.36,599.27,421.13Z" style="fill:#81bf30"/><path d="M683.2,391.77v58.74H670.11V443c-4.4,5.39-11.33,8.25-18.92,8.25-15.07,0-25.3-8.25-25.3-26V391.77h13.75v31.68c0,10.67,5.06,15.73,13.75,15.73,9.57,0,16.06-5.94,16.06-17.72V391.77Z" style="fill:#81bf30"/><path d="M759.1,416.85v33.66H745.35v-31.9c0-10.45-5.17-15.51-14-15.51-9.79,0-16.39,5.94-16.39,17.7v29.71H701.24V391.77h13.09v7.59c4.51-5.4,11.66-8.25,20.24-8.25C748.65,391.11,759.1,399.13,759.1,416.85Z" style="fill:#81bf30"/><path d="M834.67,368.88v81.63h-13.2v-7.59c-4.62,5.61-11.44,8.36-19.47,8.36-17,0-29.7-11.88-29.7-30.15s12.65-30,29.7-30c7.59,0,14.3,2.52,18.92,7.92V368.88Zm-13.53,52.25c0-11.21-7.59-18.36-17.49-18.36s-17.49,7.15-17.49,18.36,7.59,18.38,17.49,18.38S821.14,432.36,821.14,421.13Z" style="fill:#81bf30"/><path d="M901.88,416.08v34.43h-13v-7.15c-3.3,5.06-9.68,7.92-18.48,7.92-13.42,0-21.89-7.37-21.89-17.6,0-9.8,6.6-17.49,24.42-17.49h15.18v-.89c0-8-4.84-12.76-14.63-12.76-6.6,0-13.42,2.21-17.82,5.84l-5.39-10c6.27-4.84,15.4-7.26,24.86-7.26C892.09,391.11,901.88,399.13,901.88,416.08Zm-13.75,16.05v-6.81H873.94c-9.35,0-11.88,3.52-11.88,7.8,0,5,4.18,8.15,11.22,8.15C880,441.27,885.82,438.19,888.13,432.13Z" style="fill:#81bf30"/><path d="M954.79,447.32c-3.3,2.64-8.25,4-13.2,4-12.87,0-20.24-6.82-20.24-19.81V403.21h-9.68v-11h9.68V378.79H935.1v13.42h15.73v11H935.1v27.93c0,5.73,2.86,8.81,8.14,8.81a12.36,12.36,0,0,0,7.7-2.42Z" style="fill:#81bf30"/><path d="M964.25,373.83c0-4.62,3.74-8.25,8.8-8.25s8.8,3.42,8.8,7.92a8.44,8.44,0,0,1-8.8,8.58C968,382.08,964.25,378.46,964.25,373.83Zm1.87,17.94h13.75v58.74H966.12Z" style="fill:#81bf30"/><path d="M993.07,421.13c0-17.59,13.2-30,31.24-30,18.26,0,31.35,12.43,31.35,30s-13.09,30.15-31.35,30.15C1006.27,451.28,993.07,438.74,993.07,421.13Zm48.73,0c0-11.21-7.48-18.36-17.49-18.36s-17.38,7.15-17.38,18.36,7.48,18.38,17.38,18.38S1041.8,432.36,1041.8,421.13Z" style="fill:#81bf30"/><path d="M1126.72,416.85v33.66H1113v-31.9c0-10.45-5.17-15.51-14-15.51-9.79,0-16.39,5.94-16.39,17.7v29.71h-13.75V391.77H1082v7.59c4.51-5.4,11.66-8.25,20.24-8.25C1116.27,391.11,1126.72,399.13,1126.72,416.85Z" style="fill:#81bf30"/></g></svg>