<svg xmlns="http://www.w3.org/2000/svg" viewBox="0 0 460 460">
  <g id="logo-outline">
    <path id="outline" fill="#0d2f43"
          d="M421.241,426.1c4.743-11.355,10.884-26.976,16.278-43.624,5.25-16.2,8.8-30.265,10.661-42.3,2.94-18.978,1.676-32.868-3.8-41.934a25.744,25.744,0,0,0-3.134-4.186c-.274-.3-.557-.576-.841-.855-5.085-5-11.8-7.356-20.081-7.052-.844.031-1.7.079-2.574.166q5.464-14.125,9.555-27.209,1.729-5.517,3.227-10.857c7.9-28.315,8.414-45.117,7.892-53.136a34.986,34.986,0,0,0-.725-5.62l-.583-2.419-.692-2.875-5.384-.822q-15.751-2.392-32.066-3.5-7.45-.512-15.007-.767c-2.338-30.59-8.967-52.834-19.758-66.358a46.22,46.22,0,0,0-5.615-5.935,33.959,33.959,0,0,0-10.471-6.406c.037-.794.047-1.587.051-2.385,0-.112.007-.222.007-.335,0-27.565-17.177-50.63-39.943-55.966-.372-.087-.75-.152-1.125-.23-1.264-.262-2.54-.486-3.835-.637a44.232,44.232,0,0,0-5.1-.295c-17.738,0-33.351,10.607-42.235,26.559A88.054,88.054,0,0,0,241.6,35.892a70.4,70.4,0,0,0-9.2-10.246c-.108-.1-.212-.206-.32-.3-.183-.165-.373-.312-.557-.474a52.973,52.973,0,0,0-28.184-13.2c-.04,0-.08-.006-.12-.011a49.142,49.142,0,0,0-6.2-.4h0c-12.655,0-24.654,4.847-34.8,13.863a69.951,69.951,0,0,0-9.781,10.769c-11.189,15.148-17.353,35.149-17.353,56.337q0,3.622.242,7.191c.045.672.1,1.341.156,2.01.034.386.066.773.1,1.158a100.338,100.338,0,0,0,5.066,23.37q.782,2.238,1.667,4.414c-4.255,5.375-12.32,15.933-21.616,29.822-2.409,3.6-4.9,7.41-7.427,11.427A407.55,407.55,0,0,0,92.48,208.5c-.018.037-.038.074-.056.111-.243.494-.467.979-.706,1.471-9.345,19.218-15.769,37.18-19.163,53.7C55.5,273.25,45.616,279.749,44.74,280.327L42.4,281.878l-.729.482-.492,3.654-.011.089a39.934,39.934,0,0,0-.106,6.65,83,83,0,0,0,1.187,10.07,46.2,46.2,0,0,0-26.02,22.669q-6.8,13.367-5.836,31.712c1.216,23.318,11.832,52.575,31.785,87.454l2.335,4.081h366.68l2.189-4.676c.028-.059.1-.2.182-.392.733-1.581,3.5-7.608,7.208-16.445C420.925,426.856,421.083,426.477,421.241,426.1ZM402.675,321.754q4.067-8.819,7.711-17.32c.948-.306,1.915-.59,2.886-.848,1.15-.305,2.305-.566,3.448-.772,4.569-.822,8.917-.708,11.728,1.457a7.2,7.2,0,0,1,.9.806c1.333,1.439,3.1,4.455,3.844,10.588a71.008,71.008,0,0,1-.234,16.1,187.75,187.75,0,0,1-5.19,26.465q-2.349,8.967-5.632,19.112c-3,9.27-6.28,18.3-9.411,26.414-4.874,12.637-9.386,23.07-11.918,28.762H342.245q8.491-13.786,16.251-27.051Q384.793,360.544,402.675,321.754ZM270.535,432.52c7.124-9.069,19.3-26.033,27.751-45.56,6.986-16.138,11.433-34.025,8.363-50.672v0s-8.066,38.293-55.81,96.232H215.466c-8.147-12.412-14.844-23.917-20.361-34.358-20.469-38.739-24.517-62.685-24.517-62.685v0c-2.108,14.269.132,29.433,4.287,43.678,6.3,21.591,17,41.052,23.752,52.053.275.447.549.894.81,1.313H138.22c-44.239-48.9-63.918-85.4-72.639-107.537a132.844,132.844,0,0,1-7.054-23.438,71.007,71.007,0,0,1-1.271-9.962c1.132-.707,2.528-1.569,4.17-2.567a714.56,714.56,0,0,1,109.417-53.3c47.417-18.343,112.828-37.575,183.138-40.25a399.73,399.73,0,0,1,68.334,3.048c.143,7.409-.863,22.847-8.233,48.291q-1.764,6.091-4.151,13.281c-11.9,35.676-36.39,91.794-86.777,172.429ZM30.57,333.071a29.829,29.829,0,0,1,4.212-6.306c.078-.09.154-.187.233-.275s.164-.172.245-.261a30.717,30.717,0,0,1,10.9-7.575q.381,1.226.8,2.5c.642,1.952,1.358,4,2.142,6.111.193.522.381,1.038.583,1.57,11.937,31.373,34.406,66.195,66.876,103.687H53.947c-3.288-5.895-6.2-11.468-8.809-16.77C22.554,369.835,24.332,345.586,30.57,333.071ZM165.479,45.526c8.6-11.64,19.8-18.046,31.535-18.046,8.51,0,16.727,3.38,23.883,9.662a53.13,53.13,0,0,1,7.657,8.385,69.382,69.382,0,0,1,9.894,19.458,81.971,81.971,0,0,1,2.957,11.768,246.337,246.337,0,0,0-50.5-1.5l-.326.022-.139.011a230.241,230.241,0,0,0-33.518,4.959q-2.7.612-4.987,1.2A83.361,83.361,0,0,1,155.968,63.8,68.94,68.94,0,0,1,165.479,45.526Zm163.74,36.016c-21.9-4.218-42.53-2.826-56.642-.726-1.965.292-3.809.6-5.507.9q.723-2.06,1.624-4c5.791-12.485,16.838-20.939,29.483-20.939,10.855,0,20.535,6.233,26.72,15.9A43.519,43.519,0,0,1,329.219,81.542ZM280.2,96.2c1.186-.138,2.4-.271,3.656-.391a11.7,11.7,0,0,0-.546,3.536c0,4.412,2.489,8.354,6.394,10.959a20.175,20.175,0,0,0,11.176,3.243,20.441,20.441,0,0,0,10.066-2.572c4.534-2.568,7.5-6.815,7.5-11.63l0-.026a11.6,11.6,0,0,0-.108-1.554l-.008-.056a11.727,11.727,0,0,0-.32-1.527c1.828.231,3.673.515,5.525.83q2.937.5,5.9,1.15c.838.185,1.675.367,2.514.571-.431,20.7-13.62,37.626-30.38,39.662a28.32,28.32,0,0,1-3.4.205c-16.032,0-29.493-13.589-32.937-31.752a48.97,48.97,0,0,1-.841-8.038c2.374-.519,5.421-1.114,8.985-1.677C275.481,96.8,277.759,96.486,280.2,96.2Zm-82.751,60.766c-.145,0-.289.015-.435.015a32.306,32.306,0,0,1-6.532-.668c-.147-.03-.292-.074-.438-.106a39.19,39.19,0,0,1-18.961-10.8,54.917,54.917,0,0,1-5.6-6.477,66.8,66.8,0,0,1-7.329-12.744,82.736,82.736,0,0,1-6.646-27.8,204.408,204.408,0,0,1,34.081-6.309c-.084.184-.148.377-.224.565a13.167,13.167,0,0,0-.988,4.954c0,8.809,8.835,15.949,19.733,15.949,7.406,0,13.848-3.3,17.223-8.175A13.573,13.573,0,0,0,223.84,97.6a13.069,13.069,0,0,0-.4-3.171c-.01-.044-.014-.089-.025-.133,0-.014-.01-.027-.014-.04a13.7,13.7,0,0,0-1.2-3.03c6.569.368,13.429,1.038,20.516,2.093-.193,17.193-5.141,33.237-13.963,45.326-.068.094-.132.193-.2.287-.089.12-.183.231-.272.35C219.824,150.55,208.911,156.813,197.449,156.967Zm-46.767-10.873c.177.261.365.511.544.769.4.573.794,1.148,1.206,1.708a68.667,68.667,0,0,0,11.881,12.553c9.686,7.868,20.909,12.077,32.7,12.077a50.8,50.8,0,0,0,29.809-9.858A66.958,66.958,0,0,0,241.6,148.571a85.681,85.681,0,0,0,12.343-24.258c8.391,18.127,25.069,30.507,44.234,30.507,17.326,0,32.618-10.125,41.595-25.465a60.454,60.454,0,0,0,5.457-12.3c4.888,3.093,12,10.662,17.112,29.181a177.632,177.632,0,0,1,5.338,32.649,481.836,481.836,0,0,0-66.934,5.17c-4.227.615-8.463,1.265-12.721,1.989q-11.556,1.968-23.268,4.476-25.821,5.519-52.219,13.6-6.954,2.129-13.933,4.424a86.759,86.759,0,0,0-7.748-12.417c-.588-.779-1.192-1.556-1.826-2.325-.019-.024-.04-.044-.059-.068-.664-.8-1.338-1.573-2.018-2.319-.23-.252-.465-.487-.7-.733-.478-.506-.958-1-1.444-1.483-.271-.266-.545-.521-.819-.779-.458-.432-.918-.854-1.383-1.261q-.426-.374-.856-.733-.705-.59-1.418-1.138c-.28-.217-.56-.436-.842-.644-.513-.378-1.031-.735-1.551-1.084-.247-.166-.492-.341-.74-.5q-1.05-.673-2.115-1.268c-.07-.039-.139-.085-.21-.124q-1.087-.6-2.191-1.116c-.029-.014-.066-.023-.1-.037-.916-.426-1.838-.817-2.767-1.158-7.318-2.674-36.122,7.574-40.006,14.132q-.743,1.256-1.39,2.6-.585,1.21-1.09,2.491c-.113.285-.211.582-.318.872-.222.6-.44,1.2-.636,1.822-.113.353-.213.717-.317,1.077-.167.58-.328,1.164-.474,1.761-.095.39-.183.786-.269,1.183q-.194.893-.356,1.808c-.073.408-.144.818-.207,1.234-.1.635-.178,1.282-.253,1.934-.046.405-.1.808-.135,1.22-.068.73-.113,1.476-.154,2.226-.019.348-.048.689-.061,1.042-.042,1.114-.059,2.245-.043,3.4a90.2,90.2,0,0,0,2.39,18.565c-8.867,4-17.118,7.941-24.725,11.716-2.086,1.035-4.136,2.061-6.121,3.07q-1.908.969-3.754,1.92c11.756-39.327,38.187-79.238,53.82-100.66C147.532,150.29,149.2,148.047,150.682,146.094Zm-9.012,83.971c-.062-.318-.123-.649-.183-.979a68.366,68.366,0,0,1-1.153-11.169A36.848,36.848,0,0,1,141.861,206c4.557-6.879,21.609-11.714,26.789-9.125,6.414,4.14,11.344,11.432,14.416,17q-9.213,3.276-18.446,6.856c-2.647,1.025-5.247,2.056-7.825,3.089C151.614,225.9,146.56,227.981,141.67,230.065Z"/>
  </g>
</svg>
