<svg xmlns="http://www.w3.org/2000/svg" viewBox="0 0 570.39 513.41">
  <g id="arrow">
    <path d="M7.61,152.66,139.93,284.43a10.7,10.7,0,0,0,18.24-7.58V13.31a10.7,10.7,0,0,0-18.24-7.58L7.61,137.5A10.7,10.7,0,0,0,7.61,152.66Z" transform="translate(-4.46 -2.59)" fill="#9fd748"/>
    <rect x="85.84" y="53.24" width="484.55" height="178.48" rx="15.17" fill="#9fd748"/>
  </g>
  <g id="based">
    <path d="M486,365.53C569.49,334.37,487.7,508,487.7,508H131.2c-71.33-122,2.46-132.63,2.46-132.63h0l-2.49-20.67L161.34,337h0c12.5-69.71,72.09-137.77,72.09-137.77-45-98.06,81.38-174.56,102.16-33.94,7.36-74.74,94.56-58,85.6,8.79,35.06,4.09,37.05,80.44,37.05,80.44l53.3,4.51S519.63,292.89,486,365.53Z" transform="translate(-4.46 -2.59)" fill="#91c73e"/>
  </g>
  <g id="body-dk">
    <path d="M407.91,263.38c28.36,2.6,53.87,8,58.48,18.95,6.4,15.23-38.72,166.2-56.79,225.67,0,0,108.4-167,101.94-249l-53.3-4.51s0-72.39-37.05-80.44C433.76,190.72,436.21,261.79,407.91,263.38Z" transform="translate(-4.46 -2.59)" fill="#7ba835"/>
    <path d="M498.35,362c13.72,16.34,11.94,50.08-36.22,146H487.7S559,361.61,498.35,362Z" transform="translate(-4.46 -2.59)" fill="#7ba835"/>
    <path d="M388.36,405.13c-2.84,37.29-42.65,93.8-49.78,102.87H356C391.21,468,391.92,426.23,388.36,405.13Z" transform="translate(-4.46 -2.59)" fill="#7ba835"/>
    <path d="M292,508h20c-15.07-18.76-57.34-97.6-60-105C250.92,428.8,276.62,486.29,292,508Z" transform="translate(-4.46 -2.59)" fill="#7ba835"/>
  </g>
  <g id="body-lt">
    <path d="M248,508c-38.78-26.74-110-157-110-157-26,42.8,78.35,157,78.35,157Z" transform="translate(-4.46 -2.59)" fill="#9fd748"/>
    <path d="M131,508h19c-53.95-87.9-32.69-117.51-15-126C82.91,380.87,95.48,448.58,131,508Z" transform="translate(-4.46 -2.59)" fill="#9fd748"/>
  </g>
  <g id="outline">
    <path d="M131.2,355c115.13-71.77,263.21-115.15,380.34-96C519,321,445.41,454,409,508H216.4S131.11,420.07,131.2,355Z" transform="translate(-4.46 -2.59)" fill="none" stroke="#212e3e" stroke-miterlimit="10" stroke-width="16"/>
    <path d="M134,375s-74.33,11-3,133H487.7s81.8-173.66-1.7-142.5" transform="translate(-4.46 -2.59)" fill="none" stroke="#212e3e" stroke-miterlimit="10" stroke-width="16"/>
    <path d="M252,403c1.49,9.41,4.68,18.33,8.09,27.13A315.88,315.88,0,0,0,278.44,468c6.75,12.06,14.43,24.25,22.11,35.77L294,500.19c13.58-.23,28.51-.22,42.08-.05l-5.94,2.72c6.17-7.07,12.41-14.95,18.1-22.43,11.59-15.42,22.57-31.44,31-48.83,4.15-8.71,7.62-17.79,9.18-27.65,2.59,20.23-5,40.41-13.51,58.4a266.46,266.46,0,0,1-35.07,53.43c-16.42.32-33.84.25-50.25,0-11.06-17.54-21-36.06-28.13-55.58-5-13.72-8.79-28-9.85-42.61A64.83,64.83,0,0,1,252,403Z" transform="translate(-4.46 -2.59)" fill="#212e3e"/>
    <path d="M161,336.71c8.68-50.54,51.09-110.52,74-139.54,21-26.62,143.76-29.58,185.6-23.52,26.63,3.86,35.07,42,37.64,80.51" transform="translate(-4.46 -2.59)" fill="none" stroke="#212e3e" stroke-miterlimit="10" stroke-width="16"/>
    <ellipse cx="274.29" cy="157.25" rx="53.88" ry="72.82" fill="none" stroke="#212e3e" stroke-miterlimit="10" stroke-width="16"/>
    <ellipse cx="375.47" cy="162.67" rx="41.94" ry="48.99" fill="none" stroke="#212e3e" stroke-miterlimit="10" stroke-width="16"/>
    <path id="tooth" d="M217.63,309c19.37-8.58,39.15-16.3,59.12-23.06-10.35-19.67-19.14-29.4-26.66-30.43-7.8-1.06-28.47,5.49-31.9,10.88C209.53,280,217.63,309,217.63,309Z" transform="translate(-4.46 -2.59)" fill="#fff" stroke="#212e3e" stroke-miterlimit="10" stroke-width="16"/>
  </g>
  <g id="eye-lids-dk">
    <path id="lid-dk-right" d="M410.6,131.84c-32.64-21.74-55.76,24.69-55.76,24.69l-16.65,4.07C338.19,130.6,372.48,94,410.6,131.84Z" transform="translate(-4.46 -2.59)" fill="#7ba835"/>
    <path id="lid-dk-left" d="M291.92,89.22c-29.77,4.33-36.06,37.65-43.18,64.86a201.22,201.22,0,0,0-23.87,5.76C222.89,120.7,247.65,79.63,291.92,89.22Z" transform="translate(-4.46 -2.59)" fill="#7ba835"/>
  </g>
  <g id="eye-whites">
    <path d="M421.62,159.84c-24-7.24-59.41-7.36-83.43.76-2.63,27.8,17.06,54,41.75,53.65C404.88,214.66,424.69,187.76,421.62,159.84Z" transform="translate(-4.46 -2.59)" fill="#fff"/>
    <path d="M332.49,154.79c-52.44-13.13-107.62,5.05-107.62,5.05,0,40.22,24.12,72.82,53.88,72.82C310,233.26,335.14,195.1,332.49,154.79Z" transform="translate(-4.46 -2.59)" fill="#fff"/>
  </g>
  <g id="eye-pupils">
    <ellipse cx="281.38" cy="162.52" rx="19.76" ry="16.05" fill="#212e3e"/>
    <ellipse cx="378.62" cy="164.36" rx="17.82" ry="14.21" fill="#212e3e"/>
  </g>
  <g id="outline-eyes">
    <g>
      <ellipse cx="274.29" cy="157.25" rx="53.88" ry="72.82" fill="none" stroke="#212e3e" stroke-miterlimit="10" stroke-width="16"/>
      <ellipse cx="375.47" cy="162.67" rx="41.94" ry="48.99" fill="none" stroke="#212e3e" stroke-miterlimit="10" stroke-width="16"/>
      <path d="M224.87,159.84S283.27,140.59,337,156v5c24-8.52,60.21-8.52,84.62-1.16" transform="translate(-4.46 -2.59)" fill="none" stroke="#212e3e" stroke-miterlimit="10" stroke-width="16"/>
    </g>
  </g>
</svg>
