<svg xmlns="http://www.w3.org/2000/svg" viewBox="0 0 1415 460">
  <g id="title-logo-ff-allgreen">
    <g id="shaded_bits">
      <g id="shade_primary">
        <path d="M118.559,432.521H55.948c-31.77-56.951-30.337-85.49-23.378-99.451a30,30,0,0,1,15.587-14.417c.983,3.163,2.144,6.559,3.525,10.181C63.619,360.206,86.088,395.028,118.559,432.521Z" fill="#91c73e"/>
        <path d="M424.315,198.518c.143,7.409-.863,22.848-8.233,48.292-9.935,34.318-33.778,94.251-90.927,185.711H272.533c13.014-16.567,42.9-59.441,36.116-96.233,0,0-8.065,38.292-55.81,96.233H217.467c-38.376-58.471-44.88-97.045-44.88-97.045-5.433,36.776,17.951,79.528,28.85,97.045H140.219C95.98,383.616,76.3,347.121,67.58,324.982c-6.655-16.884-8.075-28.105-8.324-33.4,12.218-7.632,54.885-33.157,113.587-55.862C235.383,211.528,329.214,185.761,424.315,198.518Z" fill="#91c73e"/>
        <path d="M431.346,305.078c2.189,2.364,5.562,8.967,3.609,26.689-1.349,12.23-4.99,27.562-10.821,45.578-7.674,23.7-17.172,45.827-21.33,55.176H344.245c29.192-47.4,51.974-90.238,68.141-128.087C419.452,302.157,427.494,300.916,431.346,305.078Z" fill="#91c73e"/>
        <path d="M347.229,117.05c7.109,4.5,18.922,18.469,22.45,61.832a489.426,489.426,0,0,0-79.654,7.16,616.069,616.069,0,0,0-89.423,22.5A83.722,83.722,0,0,0,191.03,193.8c-5.84-7.085-12.347-11.933-19.206-14.446-7.318-2.674-36.122,7.574-40.006,14.132s-5.847,14.886-5.7,24.668a89.99,89.99,0,0,0,2.39,18.566c-12.858,5.808-24.454,11.477-34.6,16.706,13.116-43.874,44.5-88.492,58.779-107.332q.849,1.256,1.749,2.477C166.165,164.453,182,173.2,199.014,173.2s32.85-8.747,44.586-24.629a85.7,85.7,0,0,0,12.344-24.261c8.388,18.13,25.069,30.509,44.233,30.509C321.8,154.819,340.27,139.054,347.229,117.05Z" fill="#91c73e"/>
        <path d="M230.554,45.527a73.728,73.728,0,0,1,12.852,31.226,240.021,240.021,0,0,0-89.469,4.692c1.611-13.608,6.281-26.09,13.541-35.918,8.6-11.642,19.8-18.048,31.536-18.048S221.952,33.885,230.554,45.527Z" fill="#91c73e"/>
        <path d="M300.177,56.781c13.9,0,25.864,10.212,31.042,24.761-24.953-4.805-48.256-2.328-62.149.178C274.215,67.074,286.222,56.781,300.177,56.781Z" fill="#91c73e"/>
      </g>
      <g id="shade_white">
        <path d="M320.013,96.182a126.294,126.294,0,0,1,13.941,2.552c-.459,22.074-15.435,39.867-33.777,39.867-18.324,0-33.287-17.748-33.778-39.79a165.107,165.107,0,0,1,19.458-3,11.627,11.627,0,0,0-.547,3.535c0,7.845,7.865,14.2,17.57,14.2s17.57-6.358,17.57-14.2A11.708,11.708,0,0,0,320.013,96.182Z" fill="#fff"/>
        <path d="M244.719,93.317c-.194,17.327-5.213,33.493-14.165,45.614-8.6,11.639-19.8,18.051-31.54,18.051s-22.937-6.412-31.536-18.051C159.4,128,154.532,113.781,153.5,98.388a204.612,204.612,0,0,1,34.082-6.31,13.223,13.223,0,0,0-1.213,5.521c0,8.809,8.835,15.949,19.733,15.949s19.733-7.14,19.733-15.949a13.349,13.349,0,0,0-1.636-6.374C230.771,91.593,237.63,92.263,244.719,93.317Z" fill="#fff"/>
        <path d="M170.686,196.9c6.788,3.467,11.312,11.425,14.381,16.984q-9.212,3.275-18.446,6.856-11.948,4.627-22.951,9.33a69.476,69.476,0,0,1-1.336-12.147c-.074-4.967-.249-9.226,1.517-11.9C148.4,199.116,165.544,194.266,170.686,196.9Z" fill="#fff"/>
      </g>
      <g id="shade_dark">
        <path d="M416.082,246.81c7.37-25.444,8.376-40.882,8.233-48.291a399.73,399.73,0,0,0-68.334-3.048q-10.632.4-21.1,1.3c20.68,2.176,47.085,7.077,51.695,18.027,5.862,13.921-30.329,137.031-48.4,196.468,41.676-69.35,62.924-118.725,73.751-151.178Q414.327,252.909,416.082,246.81Z" fill="#7ba835"/>
        <path d="M414.722,403.758c3.131-8.118,6.41-17.144,9.411-26.414q3.281-10.134,5.632-19.112a187.75,187.75,0,0,0,5.19-26.465,71.008,71.008,0,0,0,.234-16.1c-.742-6.133-2.511-9.149-3.844-10.588a7.2,7.2,0,0,0-.9-.806c-1.907-1.469-4.53-1.979-7.442-1.907,5.758,10.225,8.263,40.627-36.9,130.156h16.7C405.336,426.828,409.848,416.4,414.722,403.758Z" fill="#7ba835"/>
        <path d="M167.479,45.526A68.94,68.94,0,0,0,157.968,63.8a83.361,83.361,0,0,0-4.031,17.642q2.287-.583,4.987-1.2c3.55-.806,7.626-1.627,12.164-2.386,3.247-13.136,11.784-41.955,25.794-50.307C185.926,28.279,175.553,34.593,167.479,45.526Z" fill="#7ba835"/>
        <path d="M270.694,77.721q-.9,1.938-1.624,4c1.7-.306,3.542-.612,5.507-.9,1.8-.267,3.7-.522,5.7-.757,5.254-7.161,16.891-20.568,30.693-21.121a28.368,28.368,0,0,0-10.789-2.156C287.532,56.782,276.485,65.236,270.694,77.721Z" fill="#7ba835"/>
        <path d="M345.743,179.65q12.079-.7,23.936-.768a177.632,177.632,0,0,0-5.338-32.649c-5.114-18.519-12.224-26.088-17.112-29.181-.2.62-.423,1.224-.637,1.834C349.407,129.456,352.865,151.019,345.743,179.65Z" fill="#7ba835"/>
        <path d="M309.29,336.4q-.146,1.073-.3,2.1c2.313,16.015-2.028,33.04-8.707,48.469-8.453,19.527-20.627,36.491-27.751,45.56h10.153C317.488,389.229,309.29,336.4,309.29,336.4Z" fill="#7ba835"/>
        <path d="M197.105,398.162c5.517,10.441,12.214,21.946,20.361,34.358h8.874c-15.022-20.641-49.763-86.643-52.671-92.183C175.878,349.176,182.043,369.656,197.105,398.162Z" fill="#7ba835"/>
      </g>
      <g id="shade_light">
        <path d="M62.4,289.639c-1.181.722-2.216,1.362-3.093,1.91v.99a73.988,73.988,0,0,0,1.216,9.006,132.844,132.844,0,0,0,7.054,23.438c8.721,22.139,28.4,58.632,72.639,107.537h18.612C128.279,406.788,75.629,313.545,62.4,289.639Z" fill="#9fd748"/>
        <path d="M48.318,319.158c-.052-.167-.11-.34-.161-.5a30.717,30.717,0,0,0-10.9,7.575c-.081.089-.164.171-.245.261s-.155.185-.233.275a29.829,29.829,0,0,0-4.212,6.306c-6.238,12.515-8.016,36.764,14.568,82.679,2.607,5.3,5.521,10.875,8.809,16.77h9.845C19.4,353.394,39.626,326.3,48.318,319.158Z" fill="#9fd748"/>
      </g>
    </g>
    <path id="outline" d="M423.241,426.1c4.743-11.355,10.884-26.976,16.278-43.624,5.25-16.2,8.8-30.265,10.661-42.3,2.94-18.978,1.676-32.868-3.8-41.934a25.744,25.744,0,0,0-3.134-4.186c-.274-.3-.557-.576-.841-.855-5.085-5-11.8-7.356-20.081-7.052-.844.031-1.7.079-2.574.166q5.464-14.125,9.555-27.209,1.729-5.517,3.227-10.857c7.9-28.315,8.414-45.117,7.892-53.136a34.986,34.986,0,0,0-.725-5.62l-.583-2.419-.692-2.875-5.384-.822q-15.751-2.392-32.066-3.5-7.45-.512-15.007-.767c-2.338-30.59-8.967-52.834-19.758-66.358a46.22,46.22,0,0,0-5.615-5.935,33.959,33.959,0,0,0-10.471-6.406c.037-.794.047-1.587.051-2.385,0-.112.007-.222.007-.335,0-27.565-17.177-50.63-39.943-55.966-.372-.087-.75-.152-1.125-.23-1.264-.262-2.54-.486-3.835-.637a44.232,44.232,0,0,0-5.1-.295c-17.738,0-33.351,10.607-42.235,26.559A88.054,88.054,0,0,0,243.6,35.892a70.4,70.4,0,0,0-9.2-10.246c-.108-.1-.212-.206-.32-.3-.183-.165-.373-.312-.557-.474a52.973,52.973,0,0,0-28.184-13.2c-.04,0-.08-.006-.12-.011a49.142,49.142,0,0,0-6.2-.4h0c-12.655,0-24.654,4.847-34.8,13.863a69.951,69.951,0,0,0-9.781,10.769c-11.189,15.148-17.353,35.149-17.353,56.337q0,3.622.242,7.191c.045.672.1,1.341.156,2.01.034.386.066.773.1,1.158a100.338,100.338,0,0,0,5.066,23.37q.782,2.238,1.667,4.414c-4.255,5.375-12.32,15.933-21.616,29.822-2.409,3.6-4.9,7.41-7.427,11.427A407.55,407.55,0,0,0,94.48,208.5c-.018.037-.038.074-.056.111-.243.494-.467.979-.706,1.471-9.345,19.218-15.769,37.18-19.163,53.7C57.5,273.25,47.616,279.749,46.74,280.327L44.4,281.878l-.729.482-.492,3.654-.011.089a39.934,39.934,0,0,0-.106,6.65,83,83,0,0,0,1.187,10.07,46.2,46.2,0,0,0-26.02,22.669q-6.8,13.367-5.836,31.712c1.216,23.318,11.832,52.575,31.785,87.454l2.335,4.081h366.68l2.189-4.676c.028-.059.1-.2.182-.392.733-1.581,3.5-7.608,7.208-16.445C422.925,426.856,423.083,426.477,423.241,426.1ZM404.675,321.754q4.067-8.819,7.711-17.32c.948-.306,1.915-.59,2.886-.848,1.15-.305,2.305-.566,3.448-.772,4.569-.822,8.917-.708,11.728,1.457a7.2,7.2,0,0,1,.9.806c1.333,1.439,3.1,4.455,3.844,10.588a71.008,71.008,0,0,1-.234,16.1,187.75,187.75,0,0,1-5.19,26.465q-2.349,8.967-5.632,19.112c-3,9.27-6.28,18.3-9.411,26.414-4.874,12.637-9.386,23.07-11.918,28.762H344.245q8.491-13.786,16.251-27.051Q386.793,360.544,404.675,321.754ZM272.535,432.52c7.124-9.069,19.3-26.033,27.751-45.56,6.986-16.138,11.433-34.025,8.363-50.672v0s-8.066,38.293-55.81,96.232H217.466c-8.147-12.412-14.844-23.917-20.361-34.358-20.469-38.739-24.517-62.685-24.517-62.685v0c-2.108,14.269.132,29.433,4.287,43.678,6.3,21.591,17,41.052,23.752,52.053.275.447.549.894.81,1.313H140.22c-44.239-48.9-63.918-85.4-72.639-107.537a132.844,132.844,0,0,1-7.054-23.438,71.007,71.007,0,0,1-1.271-9.962c1.132-.707,2.528-1.569,4.17-2.567a714.56,714.56,0,0,1,109.417-53.3c47.417-18.343,112.828-37.575,183.138-40.25a399.73,399.73,0,0,1,68.334,3.048c.143,7.409-.863,22.847-8.233,48.291q-1.764,6.091-4.151,13.281c-11.9,35.676-36.39,91.794-86.777,172.429ZM32.57,333.071a29.829,29.829,0,0,1,4.212-6.306c.078-.09.154-.187.233-.275s.164-.172.245-.261a30.717,30.717,0,0,1,10.9-7.575q.381,1.226.8,2.5c.642,1.952,1.358,4,2.142,6.111.193.522.381,1.038.583,1.57,11.937,31.373,34.406,66.195,66.876,103.687H55.947c-3.288-5.895-6.2-11.468-8.809-16.77C24.554,369.835,26.332,345.586,32.57,333.071ZM167.479,45.526c8.6-11.64,19.8-18.046,31.535-18.046,8.51,0,16.727,3.38,23.883,9.662a53.13,53.13,0,0,1,7.657,8.385,69.382,69.382,0,0,1,9.894,19.458,81.971,81.971,0,0,1,2.957,11.768,246.337,246.337,0,0,0-50.5-1.5l-.326.022-.139.011a230.241,230.241,0,0,0-33.518,4.959q-2.7.612-4.987,1.2A83.361,83.361,0,0,1,157.968,63.8,68.94,68.94,0,0,1,167.479,45.526Zm163.74,36.016c-21.9-4.218-42.53-2.826-56.642-.726-1.965.292-3.809.6-5.507.9q.723-2.06,1.624-4c5.791-12.485,16.838-20.939,29.483-20.939,10.855,0,20.535,6.233,26.72,15.9A43.519,43.519,0,0,1,331.219,81.542ZM282.2,96.2c1.186-.138,2.4-.271,3.656-.391a11.7,11.7,0,0,0-.546,3.536c0,4.412,2.489,8.354,6.394,10.959a20.175,20.175,0,0,0,11.176,3.243,20.441,20.441,0,0,0,10.066-2.572c4.534-2.568,7.5-6.815,7.5-11.63l0-.026a11.6,11.6,0,0,0-.108-1.554l-.008-.056a11.727,11.727,0,0,0-.32-1.527c1.828.231,3.673.515,5.525.83q2.937.5,5.9,1.15c.838.185,1.675.367,2.514.571-.431,20.7-13.62,37.626-30.38,39.662a28.32,28.32,0,0,1-3.4.205c-16.032,0-29.493-13.589-32.937-31.752a48.97,48.97,0,0,1-.841-8.038c2.374-.519,5.421-1.114,8.985-1.677C277.481,96.8,279.759,96.486,282.2,96.2Zm-82.751,60.766c-.145,0-.289.015-.435.015a32.306,32.306,0,0,1-6.532-.668c-.147-.03-.292-.074-.438-.106a39.19,39.19,0,0,1-18.961-10.8,54.917,54.917,0,0,1-5.6-6.477,66.8,66.8,0,0,1-7.329-12.744,82.736,82.736,0,0,1-6.646-27.8,204.408,204.408,0,0,1,34.081-6.309c-.084.184-.148.377-.224.565a13.167,13.167,0,0,0-.988,4.954c0,8.809,8.835,15.949,19.733,15.949,7.406,0,13.848-3.3,17.223-8.175A13.573,13.573,0,0,0,225.84,97.6a13.069,13.069,0,0,0-.4-3.171c-.01-.044-.014-.089-.025-.133,0-.014-.01-.027-.014-.04a13.7,13.7,0,0,0-1.2-3.03c6.569.368,13.429,1.038,20.516,2.093-.193,17.193-5.141,33.237-13.963,45.326-.068.094-.132.193-.2.287-.089.12-.183.231-.272.35C221.824,150.55,210.911,156.813,199.449,156.967Zm-46.767-10.873c.177.261.365.511.544.769.4.573.794,1.148,1.206,1.708a68.667,68.667,0,0,0,11.881,12.553c9.686,7.868,20.909,12.077,32.7,12.077a50.8,50.8,0,0,0,29.809-9.858A66.958,66.958,0,0,0,243.6,148.571a85.681,85.681,0,0,0,12.343-24.258c8.391,18.127,25.069,30.507,44.234,30.507,17.326,0,32.618-10.125,41.595-25.465a60.454,60.454,0,0,0,5.457-12.3c4.888,3.093,12,10.662,17.112,29.181a177.632,177.632,0,0,1,5.338,32.649,481.836,481.836,0,0,0-66.934,5.17c-4.227.615-8.463,1.265-12.721,1.989q-11.556,1.968-23.268,4.476-25.821,5.519-52.219,13.6-6.954,2.129-13.933,4.424a86.759,86.759,0,0,0-7.748-12.417c-.588-.779-1.192-1.556-1.826-2.325-.019-.024-.04-.044-.059-.068-.664-.8-1.338-1.573-2.018-2.319-.23-.252-.465-.487-.7-.733-.478-.506-.958-1-1.444-1.483-.271-.266-.545-.521-.819-.779-.458-.432-.918-.854-1.383-1.261q-.426-.374-.856-.733-.705-.59-1.418-1.138c-.28-.217-.56-.436-.842-.644-.513-.378-1.031-.735-1.551-1.084-.247-.166-.492-.341-.74-.5q-1.05-.673-2.115-1.268c-.07-.039-.139-.085-.21-.124q-1.087-.6-2.191-1.116c-.029-.014-.066-.023-.1-.037-.916-.426-1.838-.817-2.767-1.158-7.318-2.674-36.122,7.574-40.006,14.132q-.743,1.256-1.39,2.6-.585,1.21-1.09,2.491c-.113.285-.211.582-.318.872-.222.6-.44,1.2-.636,1.822-.113.353-.213.717-.317,1.077-.167.58-.328,1.164-.474,1.761-.095.39-.183.786-.269,1.183q-.194.893-.356,1.808c-.073.408-.144.818-.207,1.234-.1.635-.178,1.282-.253,1.934-.046.405-.1.808-.135,1.22-.068.73-.113,1.476-.154,2.226-.019.348-.048.689-.061,1.042-.042,1.114-.059,2.245-.043,3.4a90.2,90.2,0,0,0,2.39,18.565c-8.867,4-17.118,7.941-24.725,11.716-2.086,1.035-4.136,2.061-6.121,3.07q-1.908.969-3.754,1.92c11.756-39.327,38.187-79.238,53.82-100.66C149.532,150.29,151.2,148.047,152.682,146.094Zm-9.012,83.971c-.062-.318-.123-.649-.183-.979a68.366,68.366,0,0,1-1.153-11.169A36.848,36.848,0,0,1,143.861,206c4.557-6.879,21.609-11.714,26.789-9.125,6.414,4.14,11.344,11.432,14.416,17q-9.213,3.276-18.446,6.856c-2.647,1.025-5.247,2.056-7.825,3.089C153.614,225.9,148.56,227.981,143.67,230.065Z" fill="#212e3e"/>
    <g>
      <path d="M519.688,328.979V224.006H498.5V177.389h21.19V158.807a88.769,88.769,0,0,1,4.564-29.178,66.658,66.658,0,0,1,12.714-22.493,55.328,55.328,0,0,1,19.723-14.344,64.1,64.1,0,0,1,25.916-5.054q21.518,0,47.6,9.781L619.77,144.462a90.762,90.762,0,0,0-11.9-3.259,56.945,56.945,0,0,0-11.247-1.305q-15,0-15,16.626v20.865h37.49v46.617h-37.49V328.979Z" fill="#81bf30"/>
      <path d="M757.014,210.314a126.468,126.468,0,0,0-32.6,3.913q-14.668,3.91-21.842,13.04V328.979H640.633V157.5h56.723v32.6q9.123-17.277,22.658-26.569a50.528,50.528,0,0,1,29.176-9.291,55.178,55.178,0,0,1,7.824.325Z" fill="#81bf30"/>
      <path d="M859.379,332.238q-23.151,0-40.586-7.335a87.839,87.839,0,0,1-29.341-19.559,80.66,80.66,0,0,1-17.93-28.363,97.4,97.4,0,0,1,0-67.481,80.656,80.656,0,0,1,17.93-28.362,87.812,87.812,0,0,1,29.341-19.56q17.435-7.335,40.586-7.335,22.817,0,40.424,7.335a87.517,87.517,0,0,1,29.5,19.56A80.781,80.781,0,0,1,947.236,209.5a97.381,97.381,0,0,1,0,67.481,80.785,80.785,0,0,1-17.929,28.363A87.545,87.545,0,0,1,899.8,324.9Q882.2,332.239,859.379,332.238Zm-30.317-89q0,17.283,8.475,27.057t21.842,9.781q13.365,0,21.842-9.781t8.476-27.057q0-17.276-8.476-27.058T859.379,206.4q-13.371,0-21.842,9.781T829.062,243.241Z" fill="#81bf30"/>
      <path d="M1040.96,328.979a69.2,69.2,0,0,1-30.481-6.683,70.793,70.793,0,0,1-23.635-18.257,83.932,83.932,0,0,1-15.159-27.221,110.041,110.041,0,0,1,.489-69.438,83.484,83.484,0,0,1,16.463-28.035,76.188,76.188,0,0,1,25.265-18.42,77,77,0,0,1,32.274-6.682q18.581,0,32.6,7.335a54.465,54.465,0,0,1,22.168,21.353V157.5h53.79V313.33q0,20.219-7.5,36.513a78.194,78.194,0,0,1-21.19,27.71,99.715,99.715,0,0,1-32.926,17.766q-19.239,6.358-42.706,6.358-27.384,0-47.6-8.477a108.6,108.6,0,0,1-35.86-24.449l32.6-33.9a84.423,84.423,0,0,0,22.657,14.833,67.1,67.1,0,0,0,28.2,6.031,56.407,56.407,0,0,0,16.137-2.282,36.484,36.484,0,0,0,13.529-7.335,34.952,34.952,0,0,0,9.291-13.2q3.423-8.145,3.423-19.561V302.246a46.339,46.339,0,0,1-21.353,20.213A70.645,70.645,0,0,1,1040.96,328.979Zm22.168-48.9a30.329,30.329,0,0,0,16.463-4.4q7.006-4.4,13.2-13.2V231.831a41.84,41.84,0,0,0-13.529-18.582q-8.97-6.846-18.745-6.847a25.233,25.233,0,0,0-12.225,3.1,34.148,34.148,0,0,0-9.943,8.149,35.734,35.734,0,0,0-6.52,12.062,47.591,47.591,0,0,0-2.282,14.833q0,15.976,9.454,25.754T1063.128,280.079Z" fill="#81bf30"/>
      <path d="M1270.46,332.238q-22.494,0-40.1-7.009a84.832,84.832,0,0,1-29.5-19.071,81.983,81.983,0,0,1-18.093-27.709,88.6,88.6,0,0,1-6.194-32.927,102.366,102.366,0,0,1,6.031-35.208,81.421,81.421,0,0,1,17.93-29.014,86.609,86.609,0,0,1,29.34-19.722q17.436-7.335,40.587-7.335,22.815,0,40.424,7.335a87.513,87.513,0,0,1,29.5,19.56,80.8,80.8,0,0,1,17.93,28.362,95.621,95.621,0,0,1,6.031,33.741q0,4.888-.489,9.943t-1.141,8.964H1242.424q.978,13.692,10.106,19.724a35.322,35.322,0,0,0,19.886,6.03,41.428,41.428,0,0,0,19.071-4.564q8.962-4.561,11.9-12.713l52.486,15q-10.437,20.537-32.111,33.577T1270.46,332.238Zm27.384-107.254q-1.635-12.384-9.128-19.56t-19.235-7.172q-11.735,0-19.233,7.172t-9.128,19.56Z" fill="#81bf30"/>
    </g>
    <g>
      <path d="M541.376,348.229c4.729,0,9.35.99,12.43,3.189l-3.85,10.34a13.545,13.545,0,0,0-7.591-2.42c-5.719,0-8.689,3.19-8.689,9.461v3.519h16.17v11H534.115v47.3h-13.75v-47.3h-9.679v-11h9.679v-3.74C520.365,356.258,527.736,348.229,541.376,348.229Zm24.64,5.719c0-4.62,3.74-8.25,8.8-8.25s8.8,3.41,8.8,7.92a8.442,8.442,0,0,1-8.8,8.58C569.756,362.2,566.016,358.568,566.016,353.948Zm1.87,17.931h13.75v58.74h-13.75Z" fill="#81bf30"/>
      <path d="M657.535,396.959v33.66h-13.75v-31.9c0-10.45-5.17-15.51-13.971-15.51-9.789,0-16.389,5.939-16.389,17.709v29.7h-13.75v-58.74h13.091v7.59c4.509-5.391,11.659-8.25,20.239-8.25C647.085,371.219,657.535,379.248,657.535,396.959Z" fill="#81bf30"/>
      <path d="M724.2,396.188v34.431h-12.98v-7.15c-3.3,5.06-9.68,7.92-18.481,7.92-13.42,0-21.89-7.37-21.89-17.6,0-9.791,6.6-17.49,24.421-17.49h15.18v-.881c0-8.029-4.841-12.76-14.631-12.76-6.6,0-13.419,2.2-17.82,5.83l-5.39-10.009c6.271-4.84,15.4-7.26,24.861-7.26C714.4,371.219,724.2,379.248,724.2,396.188Zm-13.75,16.06v-6.819H696.254c-9.35,0-11.879,3.52-11.879,7.809,0,4.95,4.18,8.141,11.22,8.141C702.305,421.379,708.135,418.3,710.445,412.248Z" fill="#81bf30"/>
      <path d="M799.654,396.959v33.66H785.9v-31.9c0-10.45-5.17-15.51-13.97-15.51-9.789,0-16.39,5.939-16.39,17.709v29.7h-13.75v-58.74h13.091v7.59c4.51-5.391,11.659-8.25,20.239-8.25C789.2,371.219,799.654,379.248,799.654,396.959Z" fill="#81bf30"/>
      <path d="M812.853,401.248c0-17.6,13.2-30.029,31.79-30.029,11.439,0,20.57,4.729,25.08,13.639l-10.561,6.161a16.618,16.618,0,0,0-14.629-8.14c-10.121,0-17.82,7.039-17.82,18.369,0,11.44,7.7,18.371,17.82,18.371a16.622,16.622,0,0,0,14.629-8.14l10.561,6.16c-4.51,8.8-13.641,13.75-25.08,13.75C826.053,431.389,812.853,418.849,812.853,401.248Z" fill="#81bf30"/>
      <path d="M935.723,405.648h-46.09c1.649,8.581,8.8,14.081,19.029,14.081,6.6,0,11.771-2.09,15.95-6.38l7.37,8.469c-5.279,6.271-13.529,9.571-23.65,9.571-19.689,0-32.449-12.651-32.449-30.141s12.869-30.029,30.359-30.029c17.16,0,29.7,11.99,29.7,30.359C935.942,402.679,935.832,404.328,935.723,405.648Zm-46.2-9.129h33.331c-1.1-8.47-7.591-14.3-16.611-14.3C897.332,382.219,890.842,387.938,889.522,396.519Z" fill="#81bf30"/>
    </g>
  </g>
</svg>
